<svg xmlns="http://www.w3.org/2000/svg" width="1200" height="1200" viewBox="0 0 1200 1200">
  <defs>
    <linearGradient id="bg" x1="0" y1="0" x2="1" y2="1">
      <stop offset="0" stop-color="#0a1220"/><stop offset=".5" stop-color="#13243a"/><stop offset="1.12" stop-color="#0f8049"/>
    </linearGradient>
    <radialGradient id="glow" cx="0.72" cy="0.4" r="0.5">
      <stop offset="0" stop-color="#2ee68a" stop-opacity="0.4"/><stop offset="1" stop-color="#2ee68a" stop-opacity="0"/>
    </radialGradient>
    <linearGradient id="area" x1="0" y1="0" x2="0" y2="1">
      <stop offset="0" stop-color="#2ee68a" stop-opacity="0.5"/><stop offset="1" stop-color="#2ee68a" stop-opacity="0"/>
    </linearGradient>
  </defs>
  <rect width="1200" height="1200" fill="url(#bg)"/>
  <rect x="560" y="290" width="640" height="620" fill="url(#glow)"/>

  <g opacity="0.55" fill="#2ee68a" stroke="#2ee68a" stroke-width="3">
    <line x1="648" y1="812" x2="648" y2="872"/><rect x="636" y="828" width="24" height="36"/>
    <line x1="724" y1="770" x2="724" y2="836"/><rect x="712" y="788" width="24" height="40"/>
    <line x1="800" y1="724" x2="800" y2="800"/><rect x="788" y="742" width="24" height="44"/>
  </g>

  <path d="M610 862 L700 826 L770 836 L848 722 L918 690 L988 545 L1058 446 L1124 344 L1124 862 Z" fill="url(#area)"/>
  <polyline points="610,862 700,826 770,836 848,722 918,690 988,545 1058,446 1124,344" fill="none" stroke="#2ee68a" stroke-width="26" stroke-linecap="round" stroke-linejoin="round" opacity="0.3"/>
  <polyline points="610,862 700,826 770,836 848,722 918,690 988,545 1058,446 1124,344" fill="none" stroke="#36ec8f" stroke-width="12" stroke-linecap="round" stroke-linejoin="round"/>
  <polygon points="1144,322 1082,340 1108,364 1098,386 1158,372" fill="#36ec8f"/>

  <text x="556" y="906" font-size="350">🐂</text>

  <text x="86" y="388" font-family="Helvetica,Arial,sans-serif" font-size="30" font-weight="700" letter-spacing="3" fill="#36ec8f">▲ BULLISH ANALYSIS</text>
  <text x="80" y="508" font-family="Helvetica,Arial,sans-serif" font-size="102" font-weight="800" letter-spacing="-2" fill="#ffffff">STOCK</text>
  <text x="80" y="604" font-family="Helvetica,Arial,sans-serif" font-size="102" font-weight="800" letter-spacing="-2" fill="#ffffff">ANALYSIS</text>
  <text x="86" y="680" font-family="Thonburi,sans-serif" font-size="33" fill="#b4c2d6">มูลค่าที่เหมาะสม · จุดเข้าซื้อ · ผลตอบแทน</text>
  <rect x="86" y="726" width="476" height="62" rx="14" fill="#ffffff" opacity="0.08"/>
  <rect x="86" y="726" width="476" height="62" rx="14" fill="none" stroke="#36ec8f" stroke-width="2" opacity="0.55"/>
  <text x="110" y="766" font-family="Menlo,monospace" font-size="29" fill="#d4ece0">stock-ai.dotent.workers.dev</text>
</svg>
